<?xml version="1.0" encoding="utf-8"?>
<!-- Generator: Adobe Illustrator 19.0.1, SVG Export Plug-In . SVG Version: 6.00 Build 0)  -->
<svg version="1.1" id="Layer_1" xmlns="http://www.w3.org/2000/svg" xmlns:xlink="http://www.w3.org/1999/xlink" x="0px" y="0px"
	 viewBox="0 0 2880 1356" style="enable-background:new 0 0 2880 1356;" xml:space="preserve">
<style type="text/css">
	.st0{fill:#475561;}
	.st1{fill:#E6E7E8;}
	.st2{clip-path:url(#SVGID_2_);fill:#FEC057;}
	.st3{fill:#FEC057;}
	.st4{clip-path:url(#SVGID_4_);fill:#EB1E50;}
	.st5{clip-path:url(#SVGID_4_);fill:#F1F2F2;}
	.st6{clip-path:url(#SVGID_4_);fill:#FEC057;}
	.st7{clip-path:url(#SVGID_4_);fill:#F47920;}
	.st8{fill:#EB1E50;}
</style>
<rect x="2054.2" y="504.8" class="st0" width="270.2" height="249"/>
<rect x="2054.2" y="238" class="st0" width="270.2" height="249"/>
<rect x="2342.5" y="238" class="st0" width="270.2" height="249"/>
<rect x="2342.5" y="504.8" class="st0" width="270.2" height="249"/>
<rect x="2324.3" y="753.8" class="st1" width="18.2" height="0"/>
<g>
	<defs>
		<rect id="SVGID_1_" x="1373.3" y="238" width="1298.4" height="905.2"/>
	</defs>
	<clipPath id="SVGID_2_">
		<use xlink:href="#SVGID_1_"  style="overflow:visible;"/>
	</clipPath>
	<path class="st2" d="M2155.9,370.2c12.1,53.7,70.5,86.2,70.5,86.2c-53.7,12.1-107-21.6-119.1-75.3c-12.1-53.7,21.6-107,75.3-119.1
		C2182.5,262.1,2143.8,316.5,2155.9,370.2"/>
</g>
<polygon class="st3" points="2468.4,355.8 2461.6,348.7 2451.9,350.3 2456.5,341.6 2452,332.9 2461.7,334.7 2468.6,327.7 
	2469.9,337.4 2478.7,341.8 2469.8,346.1 "/>
<polygon class="st3" points="2171,610.9 2166,604 2157.5,604.3 2162.5,597.4 2159.6,589.4 2167.7,591.9 2174.4,586.7 2174.5,595.2 
	2181.5,600 2173.4,602.7 "/>
<polygon class="st3" points="2429.8,580.8 2436.7,577.4 2437.8,569.8 2443.2,575.3 2450.8,574 2447.2,580.8 2450.8,587.7 
	2443.2,586.4 2437.8,591.9 2436.7,584.2 "/>
<polygon class="st3" points="2391,620.9 2386.6,615.4 2379.6,615.8 2383.5,610 2380.8,603.4 2387.6,605.3 2393,600.8 2393.3,607.9 
	2399.3,611.6 2392.7,614.1 "/>
<polygon class="st3" points="2446.9,716.1 2441.2,709.1 2432.1,709.7 2437.1,702.1 2433.6,693.7 2442.4,696.1 2449.3,690.2 
	2449.8,699.3 2457.5,704.1 2449,707.3 "/>
<polygon class="st3" points="2230.4,327.7 2233.4,322.8 2231.2,317.5 2236.8,318.9 2241.1,315.2 2241.5,320.9 2246.4,323.9 
	2241.1,326 2239.8,331.6 2236.1,327.2 "/>
<polygon class="st3" points="2290.4,561.9 2286.2,557.9 2280.6,559.1 2283.1,553.9 2280.2,548.9 2286,549.7 2289.8,545.4 
	2290.9,551.1 2296.1,553.5 2291,556.2 "/>
<polygon class="st3" points="2238.4,716.1 2240.6,708.5 2235.5,702.3 2243.4,702 2247.7,695.3 2250.4,702.8 2258.2,704.8 
	2251.9,709.7 2252.4,717.6 2245.8,713.2 "/>
<polygon class="st3" points="2118.6,685.7 2113.9,688.1 2113.1,693.3 2109.4,689.5 2104.2,690.4 2106.7,685.7 2104.2,681.1 
	2109.4,681.9 2113.1,678.2 2113.9,683.4 "/>
<polygon class="st3" points="2542.5,428.5 2534.8,424 2526.8,427.8 2528.7,419.1 2522.5,412.7 2531.4,411.8 2535.6,404 
	2539.2,412.1 2548,413.7 2541.4,419.7 "/>
<polygon class="st3" points="1701.7,985.3 1373.3,1143.2 2469.1,1143.2 2671.7,985.3 "/>
<g>
	<defs>
		<rect id="SVGID_3_" x="1373.3" y="238" width="1298.4" height="905.2"/>
	</defs>
	<clipPath id="SVGID_4_">
		<use xlink:href="#SVGID_3_"  style="overflow:visible;"/>
	</clipPath>
	<path class="st4" d="M2056.2,583.3h-405.9c-16.3,0-29.6,12-29.6,26.7v289.5c0,14.7,13.3,26.7,29.6,26.7h172.4
		c-1.6,75.5-64.8,79-93.5,76.7c-7.4-0.6-13.9,4.1-13.9,10.1v11.4c0,5.6,5.6,10.1,12.6,10.1h107.6h35.8h107.6
		c6.9,0,12.6-4.5,12.6-10.1v-11.4c0-6-6.5-10.7-13.9-10.1c-28.7,2.3-91.9-1.1-93.5-76.7h172.4c16.3,0,29.6-12,29.6-26.7V610
		C2085.8,595.3,2072.5,583.3,2056.2,583.3"/>
	<path class="st5" d="M2027.4,887.3h-348.4c-13.9,0-25.1-11.3-25.1-25.1V645.3c0-13.9,11.3-25.1,25.1-25.1h348.4
		c13.9,0,25.1,11.3,25.1,25.1v216.8C2052.6,876.1,2041.3,887.3,2027.4,887.3"/>
	<path class="st6" d="M2219.3,965.4c-0.6,0-1.1-0.2-1.6-0.6c-0.5-0.4-13.3-10.4-14.9-25.4c-0.8-7.8,1.4-15.3,6.7-22.4
		c7.4-9.8,10.9-19.1,10.4-27.7c-0.5-9.2-5.6-14.4-5.8-14.6c-1.3-1.3-1.5-3.7-0.5-5.3s3-1.9,4.3-0.6c0.3,0.3,7.3,7.2,8.1,19.8
		c0.7,10.8-3.4,22-12,33.5c-4,5.3-5.7,10.8-5.2,16.2c1.2,11.4,12,19.9,12.1,20c1.4,1.1,1.9,3.4,1,5.2
		C2221.3,964.8,2220.3,965.4,2219.3,965.4"/>
	<path class="st6" d="M2277,965.4c-0.6,0-1.1-0.2-1.6-0.6c-0.5-0.4-13.3-10.4-14.9-25.4c-0.8-7.8,1.4-15.3,6.7-22.4
		c7.4-9.8,10.9-19.1,10.4-27.7c-0.5-9.2-5.6-14.4-5.8-14.6c-1.3-1.3-1.5-3.7-0.5-5.3c1.1-1.6,3-1.9,4.3-0.6
		c0.3,0.3,7.3,7.2,8.1,19.8c0.7,10.8-3.4,22-12,33.5c-4,5.3-5.7,10.8-5.2,16.2c1.2,11.4,12,19.9,12.1,20c1.4,1.1,1.9,3.4,1,5.2
		C2279.1,964.8,2278.1,965.4,2277,965.4"/>
	<path class="st6" d="M2247.1,972.5c-0.8,0-1.6-0.3-2.2-0.9c-0.6-0.5-15.3-12.9-16.9-30.6c-0.8-8.9,1.7-17.3,7.6-25.1
		c8.4-11.2,12.4-21.7,11.8-31.3c-0.6-10.3-6.3-16.1-6.5-16.4c-1.7-1.7-2-4.8-0.6-6.9c1.4-2.1,3.9-2.5,5.6-0.8
		c0.4,0.3,8.6,8.5,9.5,23.1c0.8,12.5-3.9,25.6-13.9,38.9c-4.2,5.6-6,11.3-5.5,17.3c0.6,6.7,4.2,12.7,7.1,16.6
		c3.3,4.3,6.3,6.9,6.4,6.9c1.8,1.5,2.3,4.6,1.1,6.8C2249.6,971.7,2248.4,972.5,2247.1,972.5"/>
	<path class="st7" d="M2354.6,997.1c-4.3,19.8-18.5,29.5-41.6,34.1c-0.1,0-0.1-0.1-0.1-0.2c10.5-13.1,18-28.9,21.6-45.5
		c0,0,0-0.1,0.1-0.1c7,0.1,17,0.8,19.5,4.8C2354.3,990.6,2355.2,994.1,2354.6,997.1 M2363.7,981.2c-5.5-8.8-17.2-10.3-27-10.5
		c0,0-0.1,0-0.1-0.1c0.1-2,0.2-4.1,0.2-6.1c0-14-19.8-26.1-49.1-32.4c-0.5-0.1-1,0.6-0.7,1.2l0.5,1.2c0.2,0.6,0.7,1,1.2,1.1
		c23.4,5,38.8,13.5,38.8,23.2c0,15.3-38.4,27.7-85.8,27.7c-47.4,0-85.8-12.4-85.8-27.7c0-9.7,15.5-18.3,38.8-23.2
		c0.5-0.1,0.9-0.5,1.2-1.1l0.5-1.2c0.2-0.6-0.2-1.3-0.7-1.2c-29.3,6.3-49.1,18.5-49.1,32.4c0,39.7,24.2,78.4,58.9,94.7c0,0,0,0,0,0
		c1.1,1.9,1.3,3.6-0.5,4.7c0,0,0,0,0,0h-6.2c-2,0-3.6,2.2-3.3,4.7c0.2,2,1.8,3.4,3.5,3.4h85.4c1.7,0,3.3-1.4,3.5-3.4
		c0.3-2.5-1.3-4.7-3.3-4.7h-6.2c0,0,0,0,0,0c-1.8-1.2-1.7-2.9-0.5-4.7c0,0,0,0,0,0c6.4-3,12.4-6.7,18-11.1c0,0,0,0,0,0
		c49.3-2,65.4-27.7,70.1-49.5C2367.8,990.1,2365.7,984.5,2363.7,981.2"/>
</g>
<polygon class="st8" points="1979.5,1111.3 1545,1111.3 1663.7,1045.3 2066.3,1045.3 "/>
</svg>
