<?xml version="1.0" encoding="utf-8"?>
<!-- Generator: Adobe Illustrator 19.1.0, SVG Export Plug-In . SVG Version: 6.00 Build 0)  -->
<svg version="1.1" id="Layer_1" xmlns="http://www.w3.org/2000/svg" xmlns:xlink="http://www.w3.org/1999/xlink" x="0px" y="0px"
	 viewBox="-89 253 432 288" style="enable-background:new -89 253 432 288;" xml:space="preserve">
<style type="text/css">
	.st0{fill:#F1F2F2;}
	.st1{fill:#475561;}
	.st2{fill:#E6E7E8;}
	.st3{clip-path:url(#SVGID_2_);fill:#FEC057;}
	.st4{fill:#FEC057;}
	.st5{clip-path:url(#SVGID_4_);fill:#EB1E50;}
	.st6{clip-path:url(#SVGID_6_);fill:#F1F2F2;}
	.st7{clip-path:url(#SVGID_8_);fill:#FEC057;}
	.st8{clip-path:url(#SVGID_10_);fill:#FEC057;}
	.st9{clip-path:url(#SVGID_12_);fill:#FEC057;}
	.st10{clip-path:url(#SVGID_14_);fill:#F47920;}
	.st11{fill:#EB1E50;}
</style>
<rect x="-89" y="253" class="st0" width="432" height="288"/>
<rect x="143.2" y="343.3" class="st1" width="82.2" height="71.9"/>
<rect x="143.2" y="266.3" class="st1" width="82.2" height="71.9"/>
<rect x="231" y="266.3" class="st1" width="82.2" height="71.9"/>
<rect x="231" y="343.3" class="st1" width="82.2" height="71.9"/>
<polygon class="st2" points="225.4,415.2 230.9,415.2 230.9,415.2 "/>
<g>
	<g>
		<defs>
			<rect id="SVGID_1_" x="-64.1" y="266.3" width="395.3" height="261.4"/>
		</defs>
		<clipPath id="SVGID_2_">
			<use xlink:href="#SVGID_1_"  style="overflow:visible;"/>
		</clipPath>
		<path class="st3" d="M174.1,304.5c3.7,15.5,21.5,24.9,21.5,24.9c-16.3,3.5-32.6-6.2-36.3-21.7s6.6-30.9,22.9-34.4
			C182.3,273.3,170.5,289,174.1,304.5"/>
	</g>
</g>
<polygon class="st4" points="269.3,300.3 267.2,298.3 264.3,298.7 265.7,296.2 264.3,293.7 267.2,294.2 269.3,292.2 269.7,295 
	272.4,296.3 269.7,297.5 "/>
<polygon class="st4" points="178.8,374 177.2,372 174.6,372.1 176.2,370.1 175.3,367.8 177.7,368.5 179.8,367 179.8,369.5 
	181.9,370.8 179.5,371.6 "/>
<polygon class="st4" points="295.6,357.5 298,356.3 298.4,353.8 300.3,355.6 303,355.2 301.7,357.5 303,359.7 300.3,359.3 
	298.4,361.1 298,358.6 "/>
<polygon class="st4" points="245.7,376.9 244.4,375.3 242.2,375.4 243.4,373.7 242.6,371.8 244.7,372.4 246.3,371.1 246.4,373.1 
	248.3,374.2 246.2,374.9 "/>
<polygon class="st4" points="262.7,404.4 261,402.3 258.2,402.5 259.8,400.3 258.7,397.9 261.4,398.6 263.5,396.9 263.6,399.5 
	266,400.9 263.4,401.8 "/>
<polygon class="st4" points="196.8,292.2 197.8,290.8 197.1,289.3 198.8,289.7 200.1,288.6 200.2,290.3 201.7,291.1 200.1,291.7 
	199.7,293.3 198.6,292.1 "/>
<polygon class="st4" points="215.1,359.8 213.8,358.7 212.1,359 212.9,357.5 212,356.1 213.7,356.3 214.9,355.1 215.2,356.7 
	216.8,357.4 215.3,358.2 "/>
<polygon class="st4" points="199.3,404.4 199.9,402.2 198.4,400.4 200.8,400.3 202.1,398.4 202.9,400.5 205.3,401.1 203.4,402.5 
	203.5,404.8 201.5,403.5 "/>
<polygon class="st4" points="162.8,395.6 161.4,396.3 161.1,397.8 160,396.7 158.4,396.9 159.2,395.6 158.4,394.2 160,394.5 
	161.1,393.4 161.4,394.9 "/>
<polygon class="st4" points="291.8,321.3 289.5,320 287.1,321.1 287.6,318.6 285.8,316.8 288.5,316.5 289.8,314.2 290.9,316.6 
	293.5,317.1 291.5,318.8 "/>
<polygon class="st4" points="35.9,482.1 -64.1,527.7 269.5,527.7 331.2,482.1 "/>
<g>
	<g>
		<defs>
			<rect id="SVGID_3_" x="-64.1" y="266.3" width="395.3" height="261.4"/>
		</defs>
		<clipPath id="SVGID_4_">
			<use xlink:href="#SVGID_3_"  style="overflow:visible;"/>
		</clipPath>
		<path class="st5" d="M143.8,366H20.2c-5,0-9,3.5-9,7.7v83.6c0,4.2,4.1,7.7,9,7.7h52.5c-0.5,21.8-19.7,22.8-28.5,22.1
			c-2.3-0.2-4.2,1.2-4.2,2.9v3.3c0,1.6,1.7,2.9,3.8,2.9h32.7h10.9h32.7c2.1,0,3.8-1.3,3.8-2.9V490c0-1.7-2-3.1-4.2-2.9
			c-8.7,0.7-28-0.3-28.5-22.1h52.5c5,0,9-3.5,9-7.7v-83.6C152.8,369.5,148.8,366,143.8,366"/>
	</g>
	<g>
		<defs>
			<rect id="SVGID_5_" x="-64.1" y="266.3" width="395.3" height="261.4"/>
		</defs>
		<clipPath id="SVGID_6_">
			<use xlink:href="#SVGID_5_"  style="overflow:visible;"/>
		</clipPath>
		<path class="st6" d="M135,453.8H29c-4.2,0-7.7-3.3-7.7-7.3v-62.6c0-4,3.4-7.3,7.7-7.3h106c4.2,0,7.7,3.3,7.7,7.3v62.6
			C142.7,450.6,139.3,453.8,135,453.8"/>
	</g>
	<g>
		<defs>
			<rect id="SVGID_7_" x="-64.1" y="266.3" width="395.3" height="261.4"/>
		</defs>
		<clipPath id="SVGID_8_">
			<use xlink:href="#SVGID_7_"  style="overflow:visible;"/>
		</clipPath>
		<path class="st7" d="M193.5,476.3c-0.2,0-0.3-0.1-0.5-0.2s-4-3-4.5-7.3c-0.3-2.2,0.4-4.4,2.1-6.5c2.3-2.8,3.3-5.5,3.2-8
			c-0.2-2.7-1.7-4.2-1.8-4.2c-0.4-0.4-0.5-1.1-0.1-1.5c0.3-0.5,0.9-0.5,1.3-0.2c0.1,0.1,2.2,2.1,2.5,5.7c0.2,3.1-1,6.4-3.7,9.7
			c-1.2,1.5-1.7,3.1-1.6,4.7c0.4,3.3,3.6,5.8,3.7,5.8c0.4,0.3,0.6,1,0.3,1.5C194.1,476.2,193.8,476.3,193.5,476.3"/>
	</g>
	<g>
		<defs>
			<rect id="SVGID_9_" x="-64.1" y="266.3" width="395.3" height="261.4"/>
		</defs>
		<clipPath id="SVGID_10_">
			<use xlink:href="#SVGID_9_"  style="overflow:visible;"/>
		</clipPath>
		<path class="st8" d="M211,476.3c-0.2,0-0.3-0.1-0.5-0.2s-4-3-4.5-7.3c-0.3-2.2,0.4-4.4,2.1-6.5c2.3-2.8,3.3-5.5,3.2-8
			c-0.2-2.7-1.7-4.2-1.8-4.2c-0.4-0.4-0.5-1.1-0.1-1.5c0.3-0.5,0.9-0.5,1.3-0.2c0.1,0.1,2.2,2.1,2.5,5.7c0.2,3.1-1,6.4-3.7,9.7
			c-1.2,1.5-1.7,3.1-1.6,4.7c0.4,3.3,3.6,5.8,3.7,5.8c0.4,0.3,0.6,1,0.3,1.5C211.6,476.2,211.3,476.3,211,476.3"/>
	</g>
	<g>
		<defs>
			<rect id="SVGID_11_" x="-64.1" y="266.3" width="395.3" height="261.4"/>
		</defs>
		<clipPath id="SVGID_12_">
			<use xlink:href="#SVGID_11_"  style="overflow:visible;"/>
		</clipPath>
		<path class="st9" d="M201.9,478.4c-0.2,0-0.5-0.1-0.7-0.2c-0.2-0.2-4.6-3.7-5.1-8.8c-0.3-2.6,0.5-5,2.3-7.2c2.6-3.2,3.8-6.3,3.6-9
			c-0.2-3-1.9-4.7-2-4.7c-0.5-0.5-0.6-1.4-0.2-2s1.2-0.7,1.7-0.2c0.1,0.1,2.6,2.5,2.9,6.7c0.2,3.6-1.2,7.4-4.2,11.2
			c-1.3,1.6-1.8,3.3-1.7,5c0.2,1.9,1.3,3.7,2.2,4.8c1,1.3,1.9,2,1.9,2c0.6,0.4,0.7,1.3,0.3,2C202.7,478.2,202.3,478.4,201.9,478.4"
			/>
	</g>
	<g>
		<defs>
			<rect id="SVGID_13_" x="-64.1" y="266.3" width="395.3" height="261.4"/>
		</defs>
		<clipPath id="SVGID_14_">
			<use xlink:href="#SVGID_13_"  style="overflow:visible;"/>
		</clipPath>
		<path class="st10" d="M234.6,485.5c-1.3,5.7-5.6,8.5-12.7,9.8l0,0c3.2-3.8,5.5-8.3,6.6-13.1l0,0c2.1,0,5.2,0.2,6,1.4
			C234.6,483.6,234.8,484.6,234.6,485.5 M237.4,480.9c-1.7-2.5-5.2-3-8.2-3l0,0c0-0.6,0.1-1.2,0.1-1.8c0-4-6-7.5-14.9-9.4
			c-0.2,0-0.3,0.2-0.2,0.3l0.1,0.4c0.1,0.2,0.2,0.3,0.4,0.3c7.1,1.4,11.8,3.9,11.8,6.7c0,4.4-11.7,8-26.1,8s-26.1-3.6-26.1-8
			c0-2.8,4.7-5.3,11.8-6.7c0.2,0,0.3-0.1,0.4-0.3l0.1-0.4c0.1-0.2-0.1-0.4-0.2-0.3c-8.9,1.8-14.9,5.3-14.9,9.4
			c0,11.5,7.4,22.6,17.9,27.3l0,0c0.3,0.5,0.4,1-0.2,1.4l0,0h-1.9c-0.6,0-1.1,0.6-1,1.3c0.1,0.6,0.6,1,1.1,1h26c0.5,0,1-0.4,1.1-1
			c0.1-0.7-0.4-1.3-1-1.3h-1.9l0,0c-0.5-0.3-0.5-0.8-0.2-1.4l0,0c1.9-0.9,3.8-1.9,5.5-3.2l0,0c15-0.6,19.9-8,21.3-14.3
			C238.7,483.5,238,481.9,237.4,480.9"/>
	</g>
</g>
<polygon class="st11" points="120.5,518.5 -11.8,518.5 24.3,499.4 146.9,499.4 "/>
</svg>
